<?xml version="1.0" standalone="no"?>
<!DOCTYPE svg PUBLIC "-//W3C//DTD SVG 20010904//EN"
 "http://www.w3.org/TR/2001/REC-SVG-20010904/DTD/svg10.dtd">
<svg version="1.0" xmlns="http://www.w3.org/2000/svg"
 width="820.000000pt" height="820.000000pt" viewBox="0 0 820.000000 820.000000"
 preserveAspectRatio="xMidYMid meet">
<metadata>
Created by potrace 1.11, written by Peter Selinger 2001-2013
</metadata>
<g transform="translate(0.000000,820.000000) scale(0.100000,-0.100000)"
fill="#000000" stroke="none">
<path d="M0 7000 l0 -1200 4100 0 4100 0 0 1200 0 1200 -4100 0 -4100 0 0
-1200z"/>
<path d="M2291 5156 c-8 -10 -9 -16 -1 -21 13 -8 30 3 30 21 0 18 -14 18 -29
0z"/>
<path d="M2347 5164 c-8 -8 3 -34 14 -34 11 0 12 27 0 34 -4 3 -11 3 -14 0z"/>
<path d="M2290 5097 c0 -36 53 -50 70 -18 15 29 13 31 -30 31 -26 0 -40 -4
-40 -13z"/>
<path d="M2138 5063 c7 -3 16 -2 19 1 4 3 -2 6 -13 5 -11 0 -14 -3 -6 -6z"/>
<path d="M2500 5060 c19 -13 30 -13 30 0 0 6 -10 10 -22 10 -19 0 -20 -2 -8
-10z"/>
<path d="M2045 5028 c-32 -28 -42 -90 -20 -121 16 -23 21 -7 6 22 -11 19 8 65
40 100 26 28 7 27 -26 -1z"/>
<path d="M2270 5040 c0 -5 5 -10 10 -10 6 0 10 5 10 10 0 6 -4 10 -10 10 -5 0
-10 -4 -10 -10z"/>
<path d="M2360 5035 c0 -8 5 -15 10 -15 6 0 10 7 10 15 0 8 -4 15 -10 15 -5 0
-10 -7 -10 -15z"/>
<path d="M2586 5028 c4 -7 16 -23 27 -35 13 -15 18 -31 15 -52 -3 -24 -2 -28
8 -20 21 17 11 79 -17 100 -28 21 -43 25 -33 7z"/>
<path d="M1790 4963 c-38 -14 -67 -91 -40 -108 6 -3 10 4 10 18 0 13 11 41 25
61 13 20 23 36 22 35 -1 0 -9 -3 -17 -6z"/>
<path d="M2364 4944 c1 -16 5 -35 10 -43 6 -9 3 -17 -8 -23 -13 -7 -16 -17
-11 -37 7 -32 -13 -55 -40 -45 -13 5 -15 14 -10 40 3 21 2 34 -5 34 -5 0 -10
16 -10 35 0 21 -6 38 -14 41 -7 3 -42 -2 -77 -11 -35 -9 -78 -19 -96 -22 -28
-4 -69 -33 -48 -33 4 0 2 -7 -5 -15 -16 -19 -30 -19 -30 0 0 25 -32 33 -90 24
-72 -11 -144 -49 -148 -77 -2 -12 -8 -22 -13 -22 -23 0 -6 -29 21 -35 35 -8
58 -40 35 -49 -21 -8 -19 -35 3 -43 9 -3 36 -14 60 -25 l43 -20 19 23 c11 12
23 19 28 14 4 -4 1 -10 -5 -12 -24 -8 -14 -33 13 -33 14 0 23 4 20 9 -3 5 6
16 20 26 25 16 26 16 19 -5 -6 -20 -5 -22 26 -15 18 4 46 16 63 26 37 23 47
24 40 4 -5 -12 2 -15 31 -15 30 0 35 3 31 18 -5 14 0 17 24 17 17 0 30 -5 30
-12 0 -8 15 -13 40 -13 22 0 40 4 40 9 0 16 -30 33 -49 28 -17 -4 -18 -2 -9
19 14 30 26 30 37 0 10 -24 30 -36 62 -36 12 0 16 -5 13 -15 -5 -12 2 -15 31
-15 30 0 36 3 31 16 -5 12 -1 14 17 8 12 -3 29 -12 37 -19 19 -16 80 -30 80
-17 0 12 -34 42 -48 42 -16 0 -15 15 2 29 11 9 15 7 20 -12 3 -13 17 -29 31
-37 14 -7 25 -19 25 -27 0 -15 46 -18 55 -3 4 6 11 8 16 4 6 -3 24 1 42 9 18
9 45 20 60 26 28 11 35 29 16 48 -18 18 -3 40 30 48 33 7 41 29 16 39 -8 3
-12 12 -9 20 9 24 -112 76 -180 76 -42 0 -56 -4 -56 -14 0 -8 -5 -18 -10 -21
-13 -8 -42 14 -35 25 7 11 -16 27 -50 33 -78 15 -171 41 -176 50 -4 5 -6 -3
-5 -19z m-281 -160 c-6 -16 -39 -19 -48 -4 -3 5 -1 19 5 31 11 19 13 20 30 4
10 -9 16 -23 13 -31z m544 2 c-7 -18 -42 -22 -52 -5 -4 5 1 19 11 30 15 17 19
18 32 5 8 -8 12 -22 9 -30z m-332 -21 c0 -26 -37 -32 -55 -10 -12 14 -11 18 1
26 23 15 54 6 54 -16z m124 16 c12 -8 13 -12 1 -26 -19 -23 -54 -15 -58 13 -3
17 1 22 20 22 13 0 29 -4 37 -9z m-272 -24 c-2 -6 -11 -15 -20 -21 -25 -15
-44 14 -21 31 18 13 47 6 41 -10z m416 -13 c-7 -20 -47 -14 -51 8 -4 19 27 29
45 15 6 -4 9 -15 6 -23z m-528 -9 c0 -22 -22 -30 -44 -16 -12 8 -13 12 -1 26
17 21 45 15 45 -10z m636 9 c10 -13 10 -17 -2 -25 -30 -19 -57 -3 -45 26 7 20
30 19 47 -1z m-461 -15 c0 -11 -4 -17 -10 -14 -5 3 -10 13 -10 21 0 8 5 14 10
14 6 0 10 -9 10 -21z m266 10 c10 -17 -13 -36 -27 -22 -12 12 -4 33 11 33 5 0
12 -5 16 -11z m-577 -18 c12 -8 12 -12 2 -25 -16 -19 -47 -21 -57 -4 -4 6 1
17 11 25 22 15 25 16 44 4z m900 0 c17 -11 7 -41 -12 -41 -8 0 -20 7 -28 16
-10 13 -10 17 2 25 17 11 21 11 38 0z m-682 -57 c-7 -7 -57 10 -57 20 0 24 14
26 37 4 12 -12 22 -22 20 -24z m-149 18 c2 -7 -3 -12 -12 -12 -9 0 -16 7 -16
16 0 17 22 14 28 -4z m502 2 c0 -2 -7 -4 -15 -4 -8 0 -15 4 -15 10 0 5 7 7 15
4 8 -4 15 -8 15 -10z m250 1 c0 -8 -4 -15 -10 -15 -5 0 -10 -7 -10 -15 0 -8
-4 -15 -10 -15 -12 0 -12 2 0 34 10 28 30 35 30 11z m-503 -1 c-3 -3 -12 -4
-19 -1 -8 3 -5 6 6 6 11 1 17 -2 13 -5z"/>
<path d="M2850 4961 c0 -6 5 -13 10 -16 6 -3 19 -23 29 -43 18 -34 19 -35 26
-13 5 17 0 30 -21 52 -28 30 -44 37 -44 20z"/>
<path d="M1460 4606 c0 -8 -15 -17 -37 -21 -45 -8 -83 -30 -83 -49 0 -7 10
-21 21 -32 12 -10 25 -29 30 -41 8 -21 15 -23 79 -23 66 0 71 2 80 24 5 14 18
30 30 36 45 24 13 70 -58 85 -18 4 -36 13 -39 21 -7 18 -23 18 -23 0z"/>
<path d="M2123 4608 c-30 -14 -29 -38 0 -38 30 0 62 24 53 38 -9 14 -24 14
-53 0z"/>
<path d="M2280 4600 c0 -17 7 -20 50 -20 43 0 50 3 50 20 0 17 -7 20 -50 20
-43 0 -50 -3 -50 -20z"/>
<path d="M2484 4608 c-9 -14 23 -38 53 -38 31 0 29 24 -2 38 -32 15 -42 15
-51 0z"/>
<path d="M3177 4603 c-4 -3 -7 -15 -7 -26 0 -15 -5 -18 -22 -13 -33 8 -88 -14
-88 -36 0 -9 9 -22 20 -28 11 -6 23 -22 26 -35 6 -24 10 -25 80 -25 68 0 75 2
83 23 5 12 19 30 30 39 12 10 21 22 21 28 0 16 -59 42 -80 35 -15 -5 -22 0
-30 19 -9 26 -21 32 -33 19z"/>
<path d="M1940 4575 c0 -17 22 -45 36 -45 25 0 13 44 -13 48 -13 2 -23 1 -23
-3z"/>
<path d="M2677 4573 c-4 -3 -7 -15 -7 -26 0 -13 5 -17 16 -13 9 3 18 6 20 6 2
0 4 9 4 20 0 19 -20 27 -33 13z"/>
<path d="M2083 4536 c-39 -6 -75 -14 -78 -18 -4 -4 -13 -4 -21 -1 -8 3 -14 2
-14 -1 0 -11 67 -36 96 -36 15 0 24 -3 20 -7 -3 -4 -80 -9 -169 -12 l-162 -6
-5 -185 c-4 -158 -7 -184 -20 -181 -41 11 -197 12 -271 2 -94 -12 -204 -59
-214 -91 -8 -24 38 -126 62 -138 10 -5 30 -12 46 -16 27 -6 27 -6 27 48 0 31
5 58 13 63 40 31 191 41 292 20 l60 -12 3 -75 c3 -93 7 -107 27 -90 33 27 36
2 34 -271 -2 -303 -4 -291 76 -331 39 -20 40 -20 22 -1 -16 18 -17 45 -15 314
3 286 4 294 23 294 20 0 20 -7 22 -320 l1 -320 37 -13 c37 -12 60 -8 50 8 -9
15 -7 632 3 642 5 5 16 6 26 2 15 -6 16 -35 16 -328 -1 -303 0 -321 17 -318
63 10 58 -9 55 214 -2 112 -2 239 0 283 l3 80 28 -40 27 -40 0 -222 c0 -247 2
-253 59 -188 30 34 38 55 25 67 -3 3 -6 70 -7 147 -2 140 -2 141 21 141 25 0
24 7 22 -131 -1 -86 1 -107 13 -112 8 -3 18 -19 21 -35 18 -80 144 -161 264
-170 61 -4 74 -1 128 26 72 36 124 91 150 158 17 43 19 77 19 264 l0 215 -194
5 -193 5 -19 61 c-21 70 -81 134 -123 134 -52 0 -56 15 -56 224 0 136 3 195
12 204 8 8 55 12 143 13 82 0 123 4 110 9 -18 8 -17 9 7 9 32 1 78 20 78 33 0
5 -5 6 -10 3 -6 -4 -16 -2 -23 3 -38 30 -411 42 -564 18z m-18 -176 c4 -6 -6
-10 -22 -9 -25 0 -26 1 -8 9 11 5 21 9 22 9 1 1 5 -3 8 -9z m-85 -70 c0 -5 -6
-10 -14 -10 -8 0 -18 5 -21 10 -3 6 3 10 14 10 12 0 21 -4 21 -10z m163 -1
c-8 -8 -16 -8 -30 0 -16 9 -14 10 12 11 21 0 26 -3 18 -11z m-83 -70 c0 -12
-7 -19 -20 -19 -22 0 -26 20 -8 38 15 15 28 6 28 -19z m-75 1 c0 -8 -10 -16
-22 -18 -18 -3 -23 2 -23 18 0 16 5 21 23 18 12 -2 22 -10 22 -18z m163 3 c5
-17 -26 -29 -40 -15 -6 6 -7 15 -3 22 9 14 37 9 43 -7z m-171 -69 c-3 -3 -12
-4 -19 -1 -8 3 -5 6 6 6 11 1 17 -2 13 -5z m93 -59 c0 -9 -9 -15 -24 -15 -28
0 -43 16 -24 23 26 11 48 7 48 -8z m-544 -39 c15 -16 19 -36 6 -36 -12 0 -32
23 -32 37 0 17 8 16 26 -1z m-76 -22 c13 -33 13 -34 -5 -34 -8 0 -15 6 -15 14
0 8 -3 21 -6 30 -3 9 -1 16 5 16 6 0 16 -12 21 -26z m185 6 c14 -16 15 -20 4
-20 -16 0 -39 19 -39 32 0 14 16 9 35 -12z m-253 -12 c-7 -7 -12 -20 -12 -30
0 -25 -17 -23 -25 3 -7 22 7 39 35 39 11 0 11 -3 2 -12z m678 -28 c0 -5 -7
-10 -16 -10 -8 0 -12 5 -9 10 3 6 10 10 16 10 5 0 9 -4 9 -10z m-52 -67 c2 -8
-6 -13 -22 -13 -28 0 -43 15 -24 23 20 8 41 3 46 -10z m92 -4 c0 -5 -4 -9 -10
-9 -5 0 -10 7 -10 16 0 8 5 12 10 9 6 -3 10 -10 10 -16z m46 -6 c-3 -3 -13 -2
-23 2 -17 7 -17 8 2 15 19 7 34 -5 21 -17z m-216 13 c0 -2 -7 -6 -15 -10 -8
-3 -15 -1 -15 4 0 6 7 10 15 10 8 0 15 -2 15 -4z m359 -92 c-14 -17 -19 -17
-42 0 -17 13 -16 15 5 39 l22 25 13 -25 c10 -19 10 -29 2 -39z m111 51 c0 -9
7 -18 15 -21 21 -8 19 -21 -6 -35 -17 -8 -24 -8 -35 3 -12 11 -12 19 -2 41 14
30 28 36 28 12z m-47 -122 c3 -15 -1 -35 -7 -45 -12 -17 -14 -17 -29 0 -14 16
-15 23 -4 45 16 35 33 34 40 0z m205 -25 c9 -9 17 -8 37 2 21 11 29 11 50 0
20 -10 28 -11 37 -2 7 7 21 12 33 12 12 0 26 -5 33 -12 9 -9 17 -9 36 2 46 24
71 -6 44 -50 -10 -16 -10 -24 0 -40 15 -25 15 -45 0 -70 -10 -15 -9 -24 2 -45
11 -21 12 -30 2 -45 -9 -15 -9 -25 0 -45 10 -22 9 -32 -5 -58 -9 -18 -17 -43
-19 -57 -2 -14 -13 -30 -27 -36 -13 -7 -28 -22 -35 -35 -8 -18 -20 -24 -43
-25 -18 0 -44 -7 -59 -14 -22 -13 -29 -12 -54 2 -15 8 -39 14 -53 11 -19 -4
-29 1 -43 22 -9 14 -30 33 -46 41 -23 12 -29 21 -25 36 3 11 -3 37 -13 56 -17
32 -18 39 -5 58 12 18 12 24 -1 42 -13 19 -13 24 2 47 14 21 14 28 3 41 -11
14 -9 19 11 35 14 10 28 19 33 19 12 0 8 -24 -8 -47 -8 -12 -12 -28 -9 -37 8
-20 43 -31 57 -17 14 14 54 14 62 1 4 -6 11 -8 16 -4 12 7 -18 44 -36 44 -7 0
-20 9 -30 20 -10 11 -15 20 -11 20 4 0 2 9 -4 21 -15 27 -7 33 22 17 40 -23
58 -41 58 -58 0 -10 7 -23 15 -30 23 -19 30 14 12 53 -10 20 -12 36 -6 42 12
12 12 42 -2 50 -5 4 -24 1 -40 -5 -36 -15 -39 -13 -32 23 6 29 21 35 41 15z"/>
<path d="M2634 3709 c-3 -6 -1 -22 7 -35 10 -19 10 -29 0 -48 -14 -26 -12 -61
4 -61 6 0 15 16 21 35 7 22 22 40 39 49 38 18 80 64 65 69 -7 3 -23 -2 -37 -9
-19 -10 -28 -10 -43 -1 -24 15 -47 15 -56 1z"/>
<path d="M2768 3662 c-14 -15 -28 -36 -30 -46 -1 -11 -21 -29 -42 -40 -41 -22
-59 -46 -34 -46 8 0 19 5 26 12 9 9 20 9 47 -1 28 -10 39 -10 50 -1 18 15 19
42 3 58 -9 9 -9 20 1 48 17 46 11 50 -21 16z"/>
<path d="M2595 3530 c-4 -7 -3 -16 3 -22 14 -14 47 -6 47 12 0 18 -40 26 -50
10z"/>
<path d="M2453 3503 c-16 -6 -16 -28 -1 -53 10 -16 10 -24 0 -40 -16 -27 -15
-40 4 -40 20 0 43 28 44 53 0 11 13 24 34 32 52 22 53 43 3 42 -23 -1 -49 2
-57 5 -8 4 -21 4 -27 1z"/>
<path d="M2740 3500 c-8 -6 -33 -7 -55 -4 -36 6 -38 5 -26 -10 7 -9 25 -22 39
-29 14 -6 29 -20 34 -29 4 -10 12 -26 17 -35 4 -10 18 -19 30 -21 24 -4 25 -2
9 33 -9 20 -8 31 3 51 12 23 11 27 -6 40 -22 17 -25 17 -45 4z"/>
<path d="M2577 3463 c-2 -5 -7 -21 -11 -36 -4 -19 -16 -32 -35 -38 -37 -13
-59 -52 -41 -74 7 -8 20 -15 30 -15 9 0 29 -9 44 -21 l26 -20 12 26 c10 23 9
32 -5 57 -16 28 -16 33 -2 54 19 30 20 74 1 74 -8 0 -17 -3 -19 -7z"/>
<path d="M2630 3445 c0 -13 5 -36 12 -50 9 -21 9 -31 0 -46 -15 -23 -16 -66
-1 -75 6 -3 25 1 42 9 18 9 40 18 50 21 10 3 17 15 17 29 0 25 -16 43 -53 62
-12 6 -23 19 -25 30 -9 45 -42 61 -42 20z"/>
<path d="M2660 4389 c0 -6 -8 -18 -17 -25 -15 -10 -16 -15 -5 -26 11 -11 16
-10 28 7 14 19 16 19 25 3 12 -21 49 -24 49 -5 0 17 -28 43 -57 51 -15 5 -23
3 -23 -5z"/>
<path d="M1367 4369 c16 -16 201 -18 208 -1 3 9 -22 12 -107 12 -83 0 -109 -3
-101 -11z"/>
<path d="M3087 4369 c14 -14 191 -15 206 0 8 8 -17 11 -103 11 -81 0 -111 -3
-103 -11z"/>
<path d="M2809 4353 c-9 -2 -19 -14 -22 -26 -3 -12 -10 -40 -16 -62 -7 -28 -7
-52 1 -80 6 -22 13 -33 15 -24 2 8 0 26 -5 40 -9 23 10 95 28 109 4 3 9 15 12
28 4 12 5 21 5 21 -1 -1 -9 -3 -18 -6z"/>
<path d="M2464 4336 c-4 -11 -14 -16 -25 -13 -12 3 -16 0 -12 -9 3 -8 0 -21
-7 -29 -10 -12 -9 -15 6 -14 27 0 70 57 56 71 -8 8 -13 7 -18 -6z"/>
<path d="M2591 4333 c-7 -14 -12 -15 -25 -4 -8 7 -20 10 -26 6 -7 -4 2 -16 24
-31 20 -14 36 -30 36 -37 0 -6 10 -2 22 10 19 19 20 26 10 48 -13 29 -27 32
-41 8z"/>
<path d="M3100 4326 c0 -13 10 -16 53 -14 47 1 48 2 12 5 -22 3 -45 9 -52 15
-10 8 -13 6 -13 -6z"/>
<path d="M1385 4320 c3 -5 14 -10 23 -10 15 0 15 2 2 10 -20 13 -33 13 -25 0z"/>
<path d="M1520 4320 l-35 -7 37 -2 c20 0 40 4 43 9 7 11 7 11 -45 0z"/>
<path d="M3235 4320 c-30 -8 -30 -8 8 -9 20 0 37 4 37 9 0 11 -2 11 -45 0z"/>
<path d="M1458 4313 c7 -3 16 -2 19 1 4 3 -2 6 -13 5 -11 0 -14 -3 -6 -6z"/>
<path d="M2690 4272 c0 -16 -6 -36 -13 -46 -18 -25 -66 -24 -86 2 -12 15 -32
22 -74 26 -52 6 -58 5 -55 -11 4 -23 38 -30 38 -9 0 22 13 20 29 -5 10 -17 10
-23 1 -29 -21 -13 -2 -32 20 -20 11 6 21 6 24 1 3 -5 -8 -14 -24 -21 -29 -12
-56 -11 -91 4 -26 11 -32 -31 -8 -55 24 -24 44 -16 29 12 -12 22 -10 22 23 10
18 -7 30 -6 45 5 11 8 27 11 35 8 8 -3 17 2 21 11 4 12 14 14 41 9 27 -5 35
-3 35 8 0 8 8 23 19 32 13 11 18 27 15 49 -1 18 -3 35 -3 40 -1 4 -5 7 -11 7
-5 0 -10 -13 -10 -28z"/>
<path d="M2680 4122 c6 -13 14 -21 18 -18 3 4 -2 14 -12 24 -18 16 -18 16 -6
-6z"/>
<path d="M2781 4112 c-1 -7 -13 -18 -28 -24 -24 -9 -25 -12 -9 -16 22 -5 50
21 43 40 -4 10 -6 10 -6 0z"/>
<path d="M2630 4098 c0 -6 8 -17 18 -25 12 -10 14 -16 5 -19 -17 -8 -16 -21 2
-28 22 -8 39 29 23 53 -13 22 -48 35 -48 19z"/>
<path d="M2945 4092 c-29 -7 -30 -9 -33 -71 -3 -58 -1 -63 15 -57 70 28 265
33 295 9 7 -6 24 -13 38 -15 23 -3 25 -7 25 -58 0 -53 1 -55 25 -52 31 3 70
28 76 50 3 9 13 34 21 55 15 35 15 38 -3 58 -21 24 -73 52 -131 71 -41 14
-277 21 -328 10z m147 -47 c4 -17 1 -25 -8 -25 -14 0 -19 31 -7 43 9 10 10 9
15 -18z m78 0 c0 -14 -4 -25 -10 -25 -5 0 -10 11 -10 25 0 14 5 25 10 25 6 0
10 -11 10 -25z m-156 -7 c5 -9 7 -20 3 -24 -8 -8 -47 24 -47 38 0 15 32 5 44
-14z m252 7 c11 -8 14 -15 7 -15 -7 0 -13 -7 -13 -15 0 -9 -9 -15 -25 -15 -25
0 -31 13 -19 44 8 20 24 20 50 1z m89 -58 c0 -39 -19 -38 -23 2 -3 24 0 32 10
29 7 -3 13 -17 13 -31z"/>
<path d="M2585 4070 c-3 -5 1 -10 9 -10 9 0 16 5 16 10 0 6 -4 10 -9 10 -6 0
-13 -4 -16 -10z"/>
<path d="M2580 4036 c0 -8 5 -18 10 -21 6 -3 10 -15 10 -26 0 -10 7 -19 15
-19 12 0 14 7 9 28 -11 44 -44 73 -44 38z"/>
<path d="M2530 4015 c0 -8 -4 -15 -10 -15 -16 0 -12 -18 10 -40 25 -25 24 -25
43 4 15 23 15 24 -5 18 -14 -3 -19 -1 -15 6 8 12 -2 42 -14 42 -5 0 -9 -7 -9
-15z"/>
<path d="M2670 3991 c0 -5 7 -14 15 -21 18 -15 42 1 31 19 -8 13 -46 15 -46 2z"/>
<path d="M2738 3975 c-5 -25 -4 -25 10 -11 12 11 13 19 5 27 -7 7 -12 3 -15
-16z"/>
<path d="M2677 3944 c-9 -10 18 -53 38 -58 29 -8 40 9 21 35 -9 13 -16 20 -16
16 0 -4 -8 -3 -19 2 -10 6 -21 8 -24 5z"/>
<path d="M1565 3908 c-2 -7 -6 -29 -7 -48 -4 -41 -30 -58 -175 -116 -114 -45
-125 -56 -117 -115 8 -55 59 -123 75 -99 10 15 8 40 -6 72 -5 13 -2 20 11 24
11 3 33 12 49 19 17 7 53 21 80 31 56 20 143 72 164 97 16 20 8 104 -12 123
-20 20 -57 27 -62 12z"/>
<path d="M3052 3910 c-25 -11 -28 -16 -36 -78 -6 -39 -3 -46 23 -71 33 -30
132 -81 226 -116 l60 -22 -3 -51 c-2 -29 -1 -52 3 -52 4 0 19 12 34 28 20 20
30 42 35 79 6 47 5 53 -20 72 -15 12 -31 21 -35 21 -5 0 -32 11 -61 25 -28 14
-55 25 -60 25 -4 0 -32 12 -62 26 -54 25 -55 27 -58 72 -3 49 -11 56 -46 42z"/>
<path d="M1445 3380 l-70 -6 93 -2 c56 -1 92 2 92 8 0 6 -10 9 -22 8 -13 -1
-54 -4 -93 -8z"/>
<path d="M3160 3380 c-65 -7 -65 -7 28 -8 60 -1 91 2 87 8 -6 10 -11 10 -115
0z"/>
<path d="M3295 3320 c3 -5 8 -10 11 -10 2 0 4 5 4 10 0 6 -5 10 -11 10 -5 0
-7 -4 -4 -10z"/>
<path d="M1313 3250 c-13 -5 -23 -17 -23 -26 0 -11 5 -14 18 -9 47 19 73 22
116 12 32 -7 60 -7 92 0 43 10 69 7 117 -12 24 -10 23 21 -2 35 -24 12 -287
12 -318 0z"/>
<path d="M3028 3249 c-10 -5 -18 -17 -18 -26 0 -10 5 -13 18 -8 47 19 73 22
116 12 35 -8 59 -8 91 1 40 11 66 8 118 -13 12 -5 17 -2 17 9 0 9 -12 21 -26
26 -34 13 -294 12 -316 -1z"/>
<path d="M2327 3243 c-4 -3 -7 -26 -7 -50 0 -40 -11 -55 -25 -33 -3 6 -24 10
-46 10 -57 0 -46 -23 17 -34 27 -5 52 -14 56 -19 4 -7 12 -6 22 2 9 8 36 15
61 17 50 3 68 11 59 25 -3 6 -27 8 -60 3 l-54 -6 0 46 c0 43 -7 55 -23 39z"/>
<path d="M1330 3201 c-23 -4 -36 -12 -38 -25 -4 -16 0 -18 25 -10 15 4 47 7
71 7 49 -2 115 -3 175 -1 23 1 53 -2 66 -7 19 -7 22 -5 19 11 -4 25 -69 37
-133 24 -32 -6 -64 -6 -90 0 -43 10 -43 10 -95 1z"/>
<path d="M3050 3201 c-23 -4 -36 -12 -38 -25 -3 -16 0 -18 19 -11 13 5 45 8
72 7 26 -1 65 -2 87 -2 22 0 61 1 88 2 26 1 58 -2 71 -7 19 -7 22 -5 19 11 -4
24 -75 37 -134 24 -29 -7 -59 -7 -87 0 -45 10 -45 10 -97 1z"/>
<path d="M1520 3143 c-35 -12 -51 -13 -86 -3 -45 13 -129 6 -139 -11 -13 -21
7 -27 45 -14 32 11 47 11 87 1 40 -11 57 -11 92 0 36 11 51 10 83 0 23 -9 41
-10 44 -4 8 13 -2 21 -45 34 -30 9 -47 8 -81 -3z"/>
<path d="M3235 3144 c-32 -12 -48 -13 -82 -3 -45 12 -128 5 -139 -12 -11 -18
4 -22 46 -11 30 7 53 7 88 -2 39 -11 54 -10 87 1 34 11 45 11 82 -1 43 -15 67
-6 44 17 -6 6 -11 8 -11 5 0 -4 -16 0 -35 8 -19 7 -36 14 -37 13 -2 0 -21 -7
-43 -15z"/>
<path d="M0 1210 l0 -1210 4100 0 4100 0 0 1210 0 1210 -4100 0 -4100 0 0
-1210z"/>
</g>
</svg>
